<svg xmlns:svg="http://www.w3.org/2000/svg" xmlns:rdf="http://www.w3.org/1999/02/22-rdf-syntax-ns#" xmlns:dc="http://purl.org/dc/elements/1.1/" xmlns:inkscape="http://www.inkscape.org/namespaces/inkscape" xmlns:sodipodi="http://sodipodi.sourceforge.net/DTD/sodipodi-0.dtd" xmlns:cc="http://creativecommons.org/ns#" xmlns="http://www.w3.org/2000/svg" xmlns:xlink="http://www.w3.org/1999/xlink" version="1.1" x="0px" y="0px" viewBox="762.5 -0.468 65 81.17125" enable-background="new 762.5 -0.468 65 64.937" xml:space="preserve"><g transform="translate(0,-280.06665)"><path fill="#000000" d="M767.5,289.567c-2.77,0-5,2.229-5,5v35c0,2.77,2.23,5,5,5   h55c2.77,0,5-2.23,5-5v-35c0-2.771-2.23-5-5-5H767.5z M767.5,294.567h55v35h-2.734l-17.814-23L794,316.83l-9.5-12.264l-17,21.947   V294.567z M812.469,299.504c-2.813,0-5.094,2.28-5.094,5.094s2.281,5.094,5.094,5.094c2.813,0,5.094-2.28,5.094-5.094   S815.282,299.504,812.469,299.504z"/></g><text x="762.5" y="79.469" fill="#000000" font-size="5px" font-weight="bold" font-family="'Helvetica Neue', Helvetica, Arial-Unicode, Arial, Sans-serif">Created by Rifki Fardianzah</text><text x="762.5" y="84.469" fill="#000000" font-size="5px" font-weight="bold" font-family="'Helvetica Neue', Helvetica, Arial-Unicode, Arial, Sans-serif">from the Noun Project</text></svg>